REM DIRINDEX 1\2,1\3,1\4,1\5
REM DIRNAME folder01,folder02,folder03,folder04,folder05
TITLE ""
FILE "Round-04-074-075.mp3" MP3
  TRACK 01 AUDIO
    TITLE "0:"
    INDEX 01 00:00:00
  TRACK 02 AUDIO
    TITLE "5:cjc093_0844"
    INDEX 01 00:00:05
  TRACK 03 AUDIO
    TITLE "0:"
    INDEX 01 00:01:48
  TRACK 04 AUDIO
    TITLE "2:cjc093_0845"
    INDEX 01 00:02:28
  TRACK 05 AUDIO
    TITLE "0:"
    INDEX 01 00:03:35
  TRACK 06 AUDIO
    TITLE "3:cjc093_0846"
    INDEX 01 00:03:64
  TRACK 07 AUDIO
    TITLE "0:"
    INDEX 01 00:05:65
  TRACK 08 AUDIO
    TITLE "4:cjc093_0847"
    INDEX 01 00:06:71
  TRACK 09 AUDIO
    TITLE "0:"
    INDEX 01 00:11:05
  TRACK 10 AUDIO
    TITLE "3:cjc093_0848"
    INDEX 01 00:12:16
  TRACK 11 AUDIO
    TITLE "0:"
    INDEX 01 00:13:26
  TRACK 12 AUDIO
    TITLE "4:cjc093_0849"
    INDEX 01 00:13:49
  TRACK 13 AUDIO
    TITLE "0:"
    INDEX 01 00:15:68
  TRACK 14 AUDIO
    TITLE "2:cjc093_0850"
    INDEX 01 00:17:12
  TRACK 15 AUDIO
    TITLE "0:"
    INDEX 01 00:18:17
  TRACK 16 AUDIO
    TITLE "3:cjc093_0851"
    INDEX 01 00:18:42
  TRACK 17 AUDIO
    TITLE "0:"
    INDEX 01 00:19:50
  TRACK 18 AUDIO
    TITLE "4:cjc093_0852"
    INDEX 01 00:20:14
  TRACK 19 AUDIO
    TITLE "0:"
    INDEX 01 00:23:65
  TRACK 20 AUDIO
    TITLE "3:cjc093_0853"
    INDEX 01 00:25:01
  TRACK 21 AUDIO
    TITLE "0:"
    INDEX 01 00:26:15
  TRACK 22 AUDIO
    TITLE "4:cjc093_0854"
    INDEX 01 00:26:40
  TRACK 23 AUDIO
    TITLE "0:"
    INDEX 01 00:29:68
  TRACK 24 AUDIO
    TITLE "3:cjc093_0855"
    INDEX 01 00:31:04
  TRACK 25 AUDIO
    TITLE "0:"
    INDEX 01 00:32:58
  TRACK 26 AUDIO
    TITLE "4:cjc093_0856"
    INDEX 01 00:33:09
  TRACK 27 AUDIO
    TITLE "0:"
    INDEX 01 00:37:56
  TRACK 28 AUDIO
    TITLE "2:cjc093_0857"
    INDEX 01 00:38:67
  TRACK 29 AUDIO
    TITLE "0:"
    INDEX 01 00:40:11
  TRACK 30 AUDIO
    TITLE "3:cjc093_0858"
    INDEX 01 00:40:38
  TRACK 31 AUDIO
    TITLE "0:"
    INDEX 01 00:41:55
  TRACK 32 AUDIO
    TITLE "4:cjc093_0859"
    INDEX 01 00:42:25
  TRACK 33 AUDIO
    TITLE "0:"
    INDEX 01 00:44:71
  TRACK 34 AUDIO
    TITLE "2:cjc093_0860"
    INDEX 01 00:46:06
  TRACK 35 AUDIO
    TITLE "0:"
    INDEX 01 00:47:11
  TRACK 36 AUDIO
    TITLE "3:cjc093_0861"
    INDEX 01 00:47:32
  TRACK 37 AUDIO
    TITLE "0:"
    INDEX 01 00:48:32
  TRACK 38 AUDIO
    TITLE "4:cjc093_0862"
    INDEX 01 00:49:00
  TRACK 39 AUDIO
    TITLE "0:"
    INDEX 01 00:51:60
  TRACK 40 AUDIO
    TITLE "2:cjc093_0863"
    INDEX 01 00:52:69
  TRACK 41 AUDIO
    TITLE "0:"
    INDEX 01 00:53:66
  TRACK 42 AUDIO
    TITLE "3:cjc093_0864"
    INDEX 01 00:54:23
  TRACK 43 AUDIO
    TITLE "0:"
    INDEX 01 00:55:24
  TRACK 44 AUDIO
    TITLE "4:cjc093_0865"
    INDEX 01 00:55:57
  TRACK 45 AUDIO
    TITLE "0:"
    INDEX 01 00:59:02
  TRACK 46 AUDIO
    TITLE "2:cjc093_0866"
    INDEX 01 01:00:13
  TRACK 47 AUDIO
    TITLE "0:"
    INDEX 01 01:01:17
  TRACK 48 AUDIO
    TITLE "3:cjc093_0867"
    INDEX 01 01:01:52
  TRACK 49 AUDIO
    TITLE "0:"
    INDEX 01 01:02:61
  TRACK 50 AUDIO
    TITLE "4:cjc093_0868"
    INDEX 01 01:03:31
  TRACK 51 AUDIO
    TITLE "0:"
    INDEX 01 01:05:73
  TRACK 52 AUDIO
    TITLE "3:cjc093_0869"
    INDEX 01 01:07:27
  TRACK 53 AUDIO
    TITLE "0:"
    INDEX 01 01:09:09
  TRACK 54 AUDIO
    TITLE "4:cjc093_0870"
    INDEX 01 01:09:38
  TRACK 55 AUDIO
    TITLE "0:"
    INDEX 01 01:13:00
  TRACK 56 AUDIO
    TITLE "2:cjc093_0871"
    INDEX 01 01:14:12
  TRACK 57 AUDIO
    TITLE "0:"
    INDEX 01 01:16:16
  TRACK 58 AUDIO
    TITLE "3:cjc093_0872"
    INDEX 01 01:16:58
  TRACK 59 AUDIO
    TITLE "0:"
    INDEX 01 01:19:28
  TRACK 60 AUDIO
    TITLE "4:cjc093_0873"
    INDEX 01 01:19:44
  TRACK 61 AUDIO
    TITLE "0:"
    INDEX 01 01:21:74
